# MagicaVoxel @ ephtracy

# material
mtllib rock.mtl
usemtl palette

# normals
vn -1 0 0
vn 1 0 0
vn 0 0 1
vn 0 0 -1
vn 0 -1 0
vn 0 1 0

# texcoords
vt 0.119141 0.5
vt 0.310547 0.5
vt 0.951172 0.5
vt 0.978516 0.5
vt 0.986328 0.5
vt 0.990234 0.5
vt 0.994141 0.5

# verts
v -2 0 1
v -2 0 -0
v -2 0 -2
v -2 1 1
v -2 1 -0
v -2 1 -1
v -2 1 -2
v -2 2 1
v -2 2 -0
v -2 2 -1
v -2 2 -2
v -2 3 -0
v -2 3 -1
v -1 0 2
v -1 0 1
v -1 1 1
v -1 2 2
v -1 2 1
v -1 2 -0
v -1 2 -1
v -1 2 -2
v -1 3 1
v -1 3 -0
v -1 3 -1
v -1 3 -2
v -1 4 1
v -1 4 -0
v 0 2 2
v 0 2 1
v 0 3 2
v 0 3 1
v 0 3 -0
v 0 3 -1
v 0 4 -0
v 0 4 -1
v 1 0 -1
v 1 0 -2
v 1 1 -1
v 1 1 -2
v 1 2 2
v 1 2 1
v 1 2 -1
v 1 2 -2
v 1 3 2
v 1 3 1
v 1 3 -1
v 1 3 -2
v 1 4 1
v 1 4 -1
v 2 0 2
v 2 0 1
v 2 0 -1
v 2 1 2
v 2 1 1
v 2 1 -0
v 2 1 -1
v 2 1 -2
v 2 2 2
v 2 2 1
v 2 2 -0
v 2 2 -1
v 2 2 -2
v 2 3 1
v 2 3 -1
v -1 0 2
v -1 2 2
v 0 1 2
v 0 2 2
v 0 3 2
v 1 2 2
v 1 3 2
v 2 0 2
v 2 1 2
v 2 2 2
v -2 0 1
v -2 1 1
v -2 2 1
v -1 0 1
v -1 1 1
v -1 2 1
v -1 3 1
v -1 4 1
v 0 2 1
v 0 3 1
v 1 2 1
v 1 3 1
v 1 4 1
v 2 2 1
v 2 3 1
v -2 2 -0
v -2 3 -0
v -1 2 -0
v -1 3 -0
v -1 3 -0
v -1 4 -0
v 0 3 -0
v 0 4 -0
v -2 2 -1
v -2 3 -1
v -1 2 -1
v -1 3 -1
v 0 3 -1
v 0 4 -1
v 1 0 -1
v 1 1 -1
v 1 2 -1
v 1 3 -1
v 1 4 -1
v 2 0 -1
v 2 1 -1
v 2 2 -1
v 2 3 -1
v -2 0 -2
v -2 1 -2
v -2 2 -2
v -1 0 -2
v -1 1 -2
v -1 2 -2
v -1 3 -2
v 0 2 -2
v 0 3 -2
v 1 0 -2
v 1 1 -2
v 1 2 -2
v 1 3 -2
v 2 1 -2
v 2 2 -2
v -1 0 2
v 2 0 2
v -2 0 1
v -1 0 1
v 1 0 1
v 2 0 1
v -2 0 -0
v -1 0 -0
v -1 0 -1
v 1 0 -1
v 2 0 -1
v -2 0 -2
v -1 0 -2
v 1 0 -2
v 1 1 -1
v 2 1 -1
v 1 1 -2
v 2 1 -2
v -1 2 2
v 0 2 2
v 1 2 2
v 2 2 2
v -2 2 1
v -1 2 1
v 0 2 1
v 1 2 1
v 2 2 1
v -2 2 -0
v -1 2 -0
v -2 2 -1
v -1 2 -1
v 1 2 -1
v 2 2 -1
v -2 2 -2
v -1 2 -2
v 1 2 -2
v 2 2 -2
v 0 3 2
v 1 3 2
v 0 3 1
v 1 3 1
v 2 3 1
v -2 3 -0
v -1 3 -0
v 0 3 -0
v -2 3 -1
v -1 3 -1
v 0 3 -1
v 1 3 -1
v 2 3 -1
v -1 3 -2
v 0 3 -2
v 1 3 -2
v -1 4 1
v 1 4 1
v -1 4 -0
v 0 4 -0
v 0 4 -1
v 1 4 -1

# faces
f 4/7/1 2/7/1 1/7/1
f 5/2/1 3/2/1 2/2/1
f 5/7/1 2/7/1 4/7/1
f 6/2/1 3/2/1 5/2/1
f 7/2/1 3/2/1 6/2/1
f 8/1/1 5/1/1 4/1/1
f 9/2/1 6/2/1 5/2/1
f 9/1/1 5/1/1 8/1/1
f 10/3/1 7/3/1 6/3/1
f 10/2/1 6/2/1 9/2/1
f 11/3/1 7/3/1 10/3/1
f 12/4/1 10/4/1 9/4/1
f 13/4/1 10/4/1 12/4/1
f 16/7/1 15/7/1 14/7/1
f 17/7/1 16/7/1 14/7/1
f 18/7/1 16/7/1 17/7/1
f 22/7/1 19/7/1 18/7/1
f 23/7/1 19/7/1 22/7/1
f 24/3/1 21/3/1 20/3/1
f 25/3/1 21/3/1 24/3/1
f 26/4/1 23/4/1 22/4/1
f 27/4/1 23/4/1 26/4/1
f 30/5/1 29/5/1 28/5/1
f 31/5/1 29/5/1 30/5/1
f 34/4/1 33/4/1 32/4/1
f 35/4/1 33/4/1 34/4/1
f 36/7/2 37/7/2 38/7/2
f 38/7/2 37/7/2 39/7/2
f 40/5/2 41/5/2 44/5/2
f 44/5/2 41/5/2 45/5/2
f 42/1/2 43/1/2 46/1/2
f 46/1/2 43/1/2 47/1/2
f 45/4/2 46/4/2 48/4/2
f 48/4/2 46/4/2 49/4/2
f 50/7/2 51/7/2 53/7/2
f 51/6/2 52/6/2 54/6/2
f 53/7/2 51/7/2 54/7/2
f 54/6/2 52/6/2 55/6/2
f 55/6/2 52/6/2 56/6/2
f 53/6/2 54/6/2 58/6/2
f 54/3/2 55/3/2 59/3/2
f 58/6/2 54/6/2 59/6/2
f 55/6/2 56/6/2 60/6/2
f 59/3/2 55/3/2 60/3/2
f 56/3/2 57/3/2 61/3/2
f 60/6/2 56/6/2 61/6/2
f 61/3/2 57/3/2 62/3/2
f 59/5/2 60/5/2 63/5/2
f 60/5/2 61/5/2 63/5/2
f 63/5/2 61/5/2 64/5/2
f 67/7/3 66/7/3 65/7/3
f 68/7/3 66/7/3 67/7/3
f 70/6/3 68/6/3 67/6/3
f 70/5/3 69/5/3 68/5/3
f 71/5/3 69/5/3 70/5/3
f 72/7/3 67/7/3 65/7/3
f 73/6/3 70/6/3 67/6/3
f 73/7/3 67/7/3 72/7/3
f 74/6/3 70/6/3 73/6/3
f 78/7/3 76/7/3 75/7/3
f 79/1/3 77/1/3 76/1/3
f 79/7/3 76/7/3 78/7/3
f 80/1/3 77/1/3 79/1/3
f 83/7/3 81/7/3 80/7/3
f 84/4/3 82/4/3 81/4/3
f 84/7/3 81/7/3 83/7/3
f 86/4/3 82/4/3 84/4/3
f 87/4/3 82/4/3 86/4/3
f 88/5/3 86/5/3 85/5/3
f 89/5/3 86/5/3 88/5/3
f 92/4/3 91/4/3 90/4/3
f 93/4/3 91/4/3 92/4/3
f 94/4/4 95/4/4 96/4/4
f 96/4/4 95/4/4 97/4/4
f 98/4/4 99/4/4 100/4/4
f 100/4/4 99/4/4 101/4/4
f 102/4/4 103/4/4 107/4/4
f 107/4/4 103/4/4 108/4/4
f 104/6/4 105/6/4 109/6/4
f 109/6/4 105/6/4 110/6/4
f 106/5/4 107/5/4 111/5/4
f 111/5/4 107/5/4 112/5/4
f 113/2/4 114/2/4 116/2/4
f 114/3/4 115/3/4 117/3/4
f 116/2/4 114/2/4 117/2/4
f 117/3/4 115/3/4 118/3/4
f 117/3/4 118/3/4 120/3/4
f 118/3/4 119/3/4 120/3/4
f 120/3/4 119/3/4 121/3/4
f 116/7/4 117/7/4 122/7/4
f 117/3/4 120/3/4 123/3/4
f 122/7/4 117/7/4 123/7/4
f 120/1/4 121/1/4 124/1/4
f 123/3/4 120/3/4 124/3/4
f 124/1/4 121/1/4 125/1/4
f 123/3/4 124/3/4 126/3/4
f 126/3/4 124/3/4 127/3/4
f 131/7/5 129/7/5 128/7/5
f 132/7/5 129/7/5 131/7/5
f 133/7/5 129/7/5 132/7/5
f 134/7/5 131/7/5 130/7/5
f 135/2/5 132/2/5 131/2/5
f 135/7/5 131/7/5 134/7/5
f 136/2/5 135/2/5 134/2/5
f 136/2/5 132/2/5 135/2/5
f 137/6/5 133/6/5 132/6/5
f 137/2/5 132/2/5 136/2/5
f 138/6/5 133/6/5 137/6/5
f 139/2/5 136/2/5 134/2/5
f 140/7/5 137/7/5 136/7/5
f 140/2/5 136/2/5 139/2/5
f 141/7/5 137/7/5 140/7/5
f 144/3/5 143/3/5 142/3/5
f 145/3/5 143/3/5 144/3/5
f 146/7/6 147/7/6 151/7/6
f 151/7/6 147/7/6 152/7/6
f 148/6/6 149/6/6 153/6/6
f 153/6/6 149/6/6 154/6/6
f 150/1/6 151/1/6 155/1/6
f 155/1/6 151/1/6 156/1/6
f 157/3/6 158/3/6 161/3/6
f 161/3/6 158/3/6 162/3/6
f 159/3/6 160/3/6 163/3/6
f 163/3/6 160/3/6 164/3/6
f 165/5/6 166/5/6 167/5/6
f 167/5/6 166/5/6 168/5/6
f 170/4/6 171/4/6 173/4/6
f 171/2/6 172/2/6 174/2/6
f 173/4/6 171/4/6 174/4/6
f 174/2/6 172/2/6 175/2/6
f 168/5/6 169/5/6 176/5/6
f 176/5/6 169/5/6 177/5/6
f 174/3/6 175/3/6 178/3/6
f 175/1/6 176/1/6 179/1/6
f 178/3/6 175/3/6 179/3/6
f 179/1/6 176/1/6 180/1/6
f 181/4/6 182/4/6 183/4/6
f 183/4/6 182/4/6 184/4/6
f 184/4/6 182/4/6 185/4/6
f 185/4/6 182/4/6 186/4/6
